<svg height="512pt" viewBox="0 0 512 512" width="512pt" xmlns="http://www.w3.org/2000/svg"><path d="m384 32v448c0 17.679688-14.320312 32-32 32h-320c-17.679688 0-32-14.320312-32-32v-448c0-17.679688 14.320312-32 32-32h320c17.679688 0 32 14.320312 32 32zm0 0" fill="#fdd835"/><g fill="#fbc02d"><path d="m64 96h256v128h-256zm0 0"/><path d="m64 256h160v32h-160zm0 0"/><path d="m64 320h256v32h-256zm0 0"/><path d="m288 416h-32v-32h32zm-64 0h-32v-32h32zm-64 0h-96v-32h96zm0 0"/></g><path d="m512 144c0 79.527344-64.472656 144-144 144s-144-64.472656-144-144 64.472656-144 144-144 144 64.472656 144 144zm0 0" fill="#ef5350"/><path d="m368 0c-79.40625 0-144 64.59375-144 144 0 13.710938 2.046875 26.945312 5.648438 39.535156l138.351562-39.535156zm0 0" fill="#64b5f6"/><path d="m229.648438 183.535156c17.230468 60.207032 72.671874 104.464844 138.351562 104.464844 39.695312 0 75.695312-16.144531 101.777344-42.222656l-101.777344-101.777344zm0 0" fill="#a1887f"/><path d="m32 32h32v32h-32zm0 0" fill="#fff"/><path d="m96 32h32v32h-32zm0 0" fill="#fff"/></svg>