<?xml version="1.0" encoding="iso-8859-1"?>
<!-- Generator: Adobe Illustrator 19.0.0, SVG Export Plug-In . SVG Version: 6.00 Build 0)  -->
<svg version="1.1" id="Layer_1" xmlns="http://www.w3.org/2000/svg" xmlns:xlink="http://www.w3.org/1999/xlink" x="0px" y="0px"
	 viewBox="0 0 512 512" style="enable-background:new 0 0 512 512;" xml:space="preserve">
<path style="fill:#A56241;" d="M362.906,292.205v-52.562c-50.967,0.477-91.961-41.271-90.505-92.29c-10.57,0-246.715,0-258.707,0
	C6.131,147.352,0,153.485,0,161.048c0,11.43,0,264.479,0,276.553c0,7.564,6.131,13.694,13.695,13.694c3.546,0,331.194,0,335.514,0
	c7.566,0,13.697-6.13,13.697-13.694c0-4.62,0-113.28,0-118.554"/>
<path style="fill:#B56F48;" d="M272.401,147.352H97.933C87.372,301.466,208.951,431.383,362.906,431.496c0-3.178,0-190.47,0-191.853
	C311.938,240.12,270.945,198.372,272.401,147.352z"/>
<g>
	<path style="fill:#964F2F;" d="M1.207,155.441l-0.04,0.072h0.007C1.186,155.49,1.197,155.465,1.207,155.441z"/>
	<path style="fill:#964F2F;" d="M295.777,89.406H51.684c-11.3,0-15.813,5.682-16.989,7.543l-0.333,0.584l-0.001,0.001l0,0
		L2.527,153.138c2.482-3.497,6.554-5.786,11.167-5.786c9.173,0,247.842,0,258.707,0c0.593-20.852,8.376-41.528,23.379-57.943
		L295.777,89.406z"/>
</g>
<g>
	<path style="fill:#EFD89C;" d="M231.097,181.62v-34.268h-99.287c0,23.014,0,84.524,0,107.584c0,7.564,6.131,13.696,13.695,13.696
		h71.896c7.565,0,13.696-6.132,13.696-13.696c0-6.494,0-35.287,0-45.656"/>
	<path style="fill:#EFD89C;" d="M217.401,390.655h-71.896c-7.564,0-13.695,6.132-13.695,13.695v34.268v12.676h99.287
		c0-10.968,0-35.688,0-46.944C231.097,396.788,224.966,390.655,217.401,390.655z"/>
</g>
<g>
	<path style="fill:#D3B475;" d="M181.453,254.936c0-23.014,0-84.524,0-107.584H131.81c0,12.532,0,95.052,0,107.584
		c0,7.564,6.131,13.696,13.695,13.696h49.643C187.584,268.632,181.453,262.5,181.453,254.936z"/>
	<path style="fill:#D3B475;" d="M181.453,404.351c0-7.563,6.131-13.695,13.695-13.695h-49.643c-7.564,0-13.695,6.132-13.695,13.695
		v34.268v12.676h49.643v-12.676V404.351z"/>
</g>
<polygon style="fill:#E2C688;" points="149.154,89.406 131.81,147.352 231.097,147.352 213.752,89.406 "/>
<path style="fill:#83D4ED;" d="M405.246,194.611c-24.361,24.364-63.999,24.364-88.363,0c-24.362-24.362-24.362-63.999,0-88.36
	c24.364-24.362,64.002-24.362,88.363,0C429.607,130.611,429.607,170.25,405.246,194.611z"/>
<path style="fill:#824229;" d="M118.202,89.406H51.684c-11.295,0-15.809,5.677-16.987,7.541l-0.105,0.184l-0.229,0.401l-0.001,0.001
	L2.527,153.138c2.482-3.497,6.554-5.786,11.167-5.786c3.467,0,39.724,0,84.073,0C95.057,126.721,101.76,105.095,118.202,89.406z"/>
<path style="fill:#A1E7F7;" d="M381.762,91.483c-55.747,19.462-55.292,98.582,0,117.899
	C437.079,190.055,437.47,110.935,381.762,91.483z"/>
<path style="fill:#85AAC6;" d="M424.541,86.956c-35.001-35.002-91.951-35.002-126.953,0c-34.999,35-34.999,91.95,0,126.95
	c31.651,31.65,81.247,34.674,116.333,9.082c19.947,19.949,49.887,49.888,74.431,74.431c12.288,12.293,32.141-7.262,19.703-19.702
	c-44.271-44.269-43.273-43.281-74.429-74.43C459.214,168.201,456.191,118.606,424.541,86.956z M405.246,194.611
	c-24.361,24.364-63.999,24.364-88.363,0c-24.362-24.362-24.362-63.999,0-88.36c24.364-24.362,64.002-24.362,88.363,0
	C429.607,130.611,429.607,170.25,405.246,194.611z"/>
<rect x="437.384" y="219.676" transform="matrix(-0.7071 0.7071 -0.7071 -0.7071 940.636 91.7479)" style="fill:#767574;" width="27.865" height="42.019"/>
<polygon style="fill:#C4A369;" points="181.453,89.406 149.154,89.406 131.81,147.352 181.453,147.352 "/>
<g>
</g>
<g>
</g>
<g>
</g>
<g>
</g>
<g>
</g>
<g>
</g>
<g>
</g>
<g>
</g>
<g>
</g>
<g>
</g>
<g>
</g>
<g>
</g>
<g>
</g>
<g>
</g>
<g>
</g>
</svg>
