<?xml version="1.0" encoding="utf-8"?>
<!-- Generator: Adobe Illustrator 23.0.0, SVG Export Plug-In . SVG Version: 6.00 Build 0)  -->
<svg version="1.1" id="Capa_1" xmlns="http://www.w3.org/2000/svg" xmlns:xlink="http://www.w3.org/1999/xlink" x="0px" y="0px"
	 viewBox="0 0 37.8 38" style="enable-background:new 0 0 37.8 38;" xml:space="preserve" width="38px" height="38px">
<style type="text/css">
	.st0{fill:#FFFFFF;}
</style>
<path class="st0" d="M37.6,17.3l-5.7-5.2V3.5h-6.5V6l-6.5-6L0.2,17.3c-0.3,0.2-0.3,0.7,0,0.9c0.2,0.3,0.7,0.3,0.9,0l2.2-2V38h10.4
	h10.4h10.4V16.3l2.2,2c0.1,0.1,0.3,0.2,0.4,0.2c0.2,0,0.3-0.1,0.5-0.2C37.8,18,37.8,17.6,37.6,17.3z M26.7,4.8h3.9v6.1l-3.9-3.6V4.8
	z M33.2,36.7h-7h-2.1h-1.3H15h-1.3H9.8H4.6V15.1L18.9,1.8l9.3,8.6l3.7,3.5l1.3,1.2V36.7z"/>
</svg>
