<svg height="512pt" viewBox="-29 0 512 512" width="512pt" xmlns="http://www.w3.org/2000/svg"><path d="m336.96875 28.488281h-327.988281c-4.960938 0-8.980469 4.019531-8.980469 8.980469v465.546875c0 4.960937 4.023438 8.984375 8.980469 8.984375h327.988281c4.960938 0 8.984375-4.023438 8.984375-8.984375v-465.546875c0-4.960938-4.023437-8.980469-8.984375-8.980469zm0 0" fill="#fff6e9"/><path d="m30.90625 503.019531v-465.550781c0-4.960938 4.023438-8.980469 8.984375-8.980469h-30.910156c-4.960938 0-8.980469 4.023438-8.980469 8.980469v465.550781c0 4.960938 4.023438 8.980469 8.980469 8.980469h30.910156c-4.960937 0-8.984375-4.023438-8.984375-8.980469zm0 0" fill="#f9e4c7"/><path d="m50.558594 0c-7.796875 0-14.117188 6.320312-14.117188 14.113281v32.851563c0 7.796875 6.320313 14.113281 14.117188 14.113281 7.792968 0 14.113281-6.316406 14.113281-14.113281v-32.851563c0-7.792969-6.316406-14.113281-14.113281-14.113281zm0 0" fill="#ff6b6b"/><path d="m55.027344 46.523438v-31.964844c0-4.3125 1.875-8.292969 4.882812-10.996094-2.492187-2.210938-5.761718-3.5625-9.351562-3.5625-7.796875 0-14.117188 6.320312-14.117188 14.113281v32.851563c0 7.796875 6.320313 14.113281 14.117188 14.113281 3.589844 0 6.859375-1.351563 9.351562-3.5625-3.007812-2.703125-4.882812-6.679687-4.882812-10.992187zm0 0" fill="#ee5253"/><path d="m99.609375 218.378906h-35.433594c-5.03125 0-9.148437 4.117188-9.148437 9.148438v35.433594c0 5.03125 4.117187 9.148437 9.148437 9.148437h35.433594c5.03125 0 9.148437-4.117187 9.148437-9.148437v-35.433594c0-5.03125-4.117187-9.148438-9.148437-9.148438zm0 0" fill="#e4eaf8"/><path d="m99.609375 313.210938h-35.433594c-5.03125 0-9.148437 4.117187-9.148437 9.148437v35.433594c0 5.03125 4.117187 9.148437 9.148437 9.148437h35.433594c5.03125 0 9.148437-4.117187 9.148437-9.148437v-35.433594c0-5.03125-4.117187-9.148437-9.148437-9.148437zm0 0" fill="#e4eaf8"/><path d="m99.609375 408.042969h-35.433594c-5.03125 0-9.148437 4.117187-9.148437 9.148437v35.433594c0 5.03125 4.117187 9.148438 9.148437 9.148438h35.433594c5.03125 0 9.148437-4.117188 9.148437-9.148438v-35.433594c0-5.03125-4.117187-9.148437-9.148437-9.148437zm0 0" fill="#e4eaf8"/><path d="m85.933594 262.960938v-35.433594c0-5.035156 4.117187-9.148438 9.148437-9.148438h-30.90625c-5.03125 0-9.148437 4.113282-9.148437 9.148438v35.433594c0 5.027343 4.117187 9.148437 9.148437 9.148437h30.90625c-5.03125 0-9.148437-4.117187-9.148437-9.148437zm0 0" fill="#d8dce5"/><path d="m85.933594 357.792969v-35.433594c0-5.03125 4.117187-9.148437 9.148437-9.148437h-30.90625c-5.03125 0-9.148437 4.117187-9.148437 9.148437v35.433594c0 5.03125 4.117187 9.148437 9.148437 9.148437h30.90625c-5.03125 0-9.148437-4.117187-9.148437-9.148437zm0 0" fill="#d8dce5"/><path d="m85.933594 452.625v-35.433594c0-5.03125 4.117187-9.148437 9.148437-9.148437h-30.90625c-5.03125 0-9.148437 4.117187-9.148437 9.148437v35.433594c0 5.03125 4.117187 9.148438 9.148437 9.148438h30.90625c-5.03125 0-9.148437-4.117188-9.148437-9.148438zm0 0" fill="#d8dce5"/><path d="m89.539062 450.535156c-1.976562 0-3.957031-.753906-5.464843-2.261718l-14.929688-14.929688c-3.015625-3.015625-3.015625-7.910156 0-10.925781 3.019531-3.015625 7.910157-3.015625 10.929688 0l9.460937 9.464843 25.597656-25.597656c3.019532-3.015625 7.910157-3.015625 10.929688 0 3.015625 3.015625 3.015625 7.910156 0 10.925782l-31.0625 31.0625c-1.507812 1.507812-3.484375 2.261718-5.460938 2.261718zm0 0" fill="#54a0ff"/><g fill="#f9e4c7"><path d="m293.996094 237.214844h-145.773438c-4.265625 0-7.726562-3.457032-7.726562-7.726563 0-4.265625 3.460937-7.726562 7.726562-7.726562h145.773438c4.269531 0 7.726562 3.460937 7.726562 7.726562 0 4.269531-3.457031 7.726563-7.726562 7.726563zm0 0"/><path d="m293.996094 332.050781h-145.773438c-4.265625 0-7.726562-3.460937-7.726562-7.730469 0-4.265624 3.460937-7.726562 7.726562-7.726562h145.773438c4.269531 0 7.726562 3.460938 7.726562 7.726562 0 4.269532-3.457031 7.730469-7.726562 7.730469zm0 0"/><path d="m293.996094 426.882812h-145.773438c-4.265625 0-7.726562-3.460937-7.726562-7.730468 0-4.265625 3.460937-7.726563 7.726562-7.726563h145.773438c4.269531 0 7.726562 3.460938 7.726562 7.726563 0 4.269531-3.457031 7.730468-7.726562 7.730468zm0 0"/><path d="m293.996094 268.699219h-145.773438c-4.265625 0-7.726562-3.460938-7.726562-7.726563 0-4.269531 3.460937-7.730468 7.726562-7.730468h145.773438c4.269531 0 7.726562 3.460937 7.726562 7.730468 0 4.265625-3.457031 7.726563-7.726562 7.726563zm0 0"/><path d="m293.996094 363.53125h-145.773438c-4.265625 0-7.726562-3.460938-7.726562-7.726562 0-4.269532 3.460937-7.730469 7.726562-7.730469h145.773438c4.269531 0 7.726562 3.460937 7.726562 7.730469 0 4.265624-3.457031 7.726562-7.726562 7.726562zm0 0"/><path d="m293.996094 458.363281h-145.773438c-4.265625 0-7.726562-3.460937-7.726562-7.726562 0-4.269531 3.460937-7.726563 7.726562-7.726563h145.773438c4.269531 0 7.726562 3.457032 7.726562 7.726563 0 4.265625-3.457031 7.726562-7.726562 7.726562zm0 0"/><path d="m288.804688 96.082031h-228.582032c-2.871094 0-5.195312 2.324219-5.195312 5.195313v71.050781c0 2.871094 2.324218 5.195313 5.195312 5.195313h228.582032c2.867187 0 5.191406-2.324219 5.191406-5.195313v-71.050781c0-2.871094-2.324219-5.195313-5.191406-5.195313zm0 0"/></g><path d="m288.804688 146.648438h-228.582032c-2.871094 0-5.195312-2.324219-5.195312-5.195313v30.875c0 2.871094 2.324218 5.195313 5.195312 5.195313h228.582032c2.867187 0 5.191406-2.324219 5.191406-5.195313v-30.875c0 2.871094-2.324219 5.195313-5.191406 5.195313zm0 0" fill="#f2d5b1"/><path d="m388.296875 221.761719h28.230469v143.46875h-28.230469zm0 0" fill="#d8dce5"/><path d="m416.527344 143.824219v-22.917969c0-7.792969-6.316406-14.113281-14.113282-14.113281-7.796874 0-14.113281 6.320312-14.113281 14.113281v22.917969zm0 0" fill="#d8dce5"/><path d="m388.296875 221.761719h19.410156v143.46875h-19.410156zm0 0" fill="#cacfd8"/><path d="m412.117188 110.675781c-2.527344-2.402343-5.941407-3.882812-9.703126-3.882812-7.796874 0-14.113281 6.316406-14.113281 14.113281v22.914062h19.40625v-22.914062c0-4.03125 1.699219-7.660156 4.410157-10.230469zm0 0" fill="#cacfd8"/><path d="m445.871094 301.316406c-4.265625 0-7.726563-3.457031-7.726563-7.726562v-126.621094l-27.355469-13.65625c-3.816406-1.90625-5.367187-6.546875-3.460937-10.363281 1.90625-3.820313 6.542969-5.367188 10.363281-3.464844l31.632813 15.789063c2.617187 1.308593 4.273437 3.988281 4.273437 6.914062v131.402344c0 4.269531-3.457031 7.726562-7.726562 7.726562zm0 0" fill="#576574"/><path d="m417.765625 138.671875h-30.703125c-2.242188 0-4.058594 1.816406-4.058594 4.058594v82.222656c0 2.238281 1.816406 4.058594 4.058594 4.058594h30.703125c2.238281 0 4.054687-1.820313 4.054687-4.058594v-82.222656c0-2.242188-1.816406-4.058594-4.054687-4.058594zm0 0" fill="#54a0ff"/><path d="m410.644531 224.953125v-82.222656c0-2.242188 1.820313-4.058594 4.058594-4.058594h-27.640625c-2.242188 0-4.058594 1.816406-4.058594 4.058594v82.21875c0 2.242187 1.816406 4.058593 4.058594 4.058593h27.640625c-2.238281.003907-4.058594-1.816406-4.058594-4.054687zm0 0" fill="#338def"/><path d="m388.296875 364.6875v7.789062c0 16.589844 3.371094 33.011719 9.90625 48.261719 1.585937 3.699219 6.832031 3.699219 8.417969 0 6.535156-15.25 9.90625-31.671875 9.90625-48.261719v-7.789062zm0 0" fill="#576574"/><path d="m407.707031 372.476562v-7.789062h-19.40625v7.789062c0 16.589844 3.367188 33.011719 9.90625 48.261719 1.585938 3.699219 6.828125 3.699219 8.414063 0 2.195312-5.121093 4.023437-10.371093 5.496094-15.71875-2.914063-10.578125-4.410157-21.523437-4.410157-32.542969zm0 0" fill="#3e4b5a"/><path d="m89.539062 260.871094c-1.976562 0-3.957031-.753906-5.464843-2.261719l-14.925781-14.929687c-3.019532-3.015626-3.019532-7.910157 0-10.925782 3.015624-3.019531 7.910156-3.019531 10.925781 0l9.464843 9.460938 25.597657-25.597656c3.015625-3.015626 7.910156-3.015626 10.925781 0 3.015625 3.019531 3.015625 7.910156 0 10.929687l-31.058594 31.058594c-1.511718 1.511719-3.488281 2.265625-5.464844 2.265625zm0 0" fill="#54a0ff"/><path d="m89.539062 355.703125c-2.050781 0-4.015624-.8125-5.464843-2.265625l-14.929688-14.925781c-3.015625-3.019531-3.015625-7.910157 0-10.925781 3.019531-3.019532 7.910157-3.015626 10.929688 0l9.460937 9.464843 25.597656-25.597656c3.019532-3.019531 7.910157-3.019531 10.929688-.003906 3.015625 3.019531 3.015625 7.910156 0 10.929687l-31.0625 31.058594c-1.445312 1.453125-3.410156 2.265625-5.460938 2.265625zm0 0" fill="#54a0ff"/></svg>