<svg xmlns="http://www.w3.org/2000/svg" height="706pt" version="1.1" viewBox="-36 0 706 706.11505" width="706pt">
<g id="surface1">
<path d="M 394.757812 618.800781 C 393.957031 616.300781 393.359375 613.800781 392.757812 611.199219 C 392.457031 609.800781 392.15625 608.398438 391.859375 607 C 391.359375 604.601562 390.957031 602.101562 390.65625 599.5 C 390.457031 598.101562 390.257812 596.601562 390.15625 595.199219 C 389.859375 592.5 389.757812 589.800781 389.757812 587.101562 C 389.757812 586.101562 389.65625 585.199219 389.65625 584.199219 C 389.65625 583.898438 389.65625 583.601562 389.65625 583.199219 C 389.65625 580.199219 389.859375 577.101562 390.15625 574.101562 C 390.257812 573.199219 390.257812 572.300781 390.359375 571.5 C 391.15625 563.898438 392.65625 556.398438 394.757812 549 C 406.359375 509.800781 436.957031 479.199219 476.15625 467.601562 C 483.558594 465.5 491.058594 464 498.65625 463.199219 C 499.558594 463.101562 500.457031 463.101562 501.359375 463 C 504.359375 462.699219 507.457031 462.601562 510.359375 462.5 C 510.65625 462.5 511.058594 462.5 511.359375 462.5 C 512.359375 462.5 513.257812 462.601562 514.257812 462.601562 C 516.957031 462.699219 519.65625 462.800781 522.359375 463 C 523.757812 463.101562 525.257812 463.300781 526.65625 463.5 C 529.15625 463.800781 531.65625 464.199219 534.15625 464.699219 C 535.558594 465 536.957031 465.199219 538.359375 465.601562 C 540.957031 466.199219 543.457031 466.800781 545.957031 467.601562 C 547.15625 468 548.359375 468.300781 549.457031 468.601562 C 553.15625 469.800781 556.558594 471.101562 560.058594 472.601562 L 560.058594 24.300781 C 560.058594 10.898438 549.15625 0 535.757812 0 L 316.558594 0 L 316.558594 389.5 L 351.859375 477.800781 C 356.859375 490.300781 350.757812 504.398438 338.257812 509.398438 C 335.359375 510.5 332.359375 511.101562 329.257812 511.101562 L 230.757812 511.101562 C 217.359375 511.101562 206.457031 500.199219 206.457031 486.699219 C 206.457031 483.601562 207.058594 480.601562 208.15625 477.699219 L 243.457031 389.398438 L 243.457031 0 L 158.257812 0 L 158.257812 121.699219 C 158.257812 135.101562 147.359375 146 133.957031 146 L 0.0585938 146 L 0.0585938 608.5 C 0.0585938 621.898438 10.957031 632.800781 24.359375 632.800781 L 399.757812 632.800781 C 398.257812 629.398438 396.957031 625.800781 395.757812 622.199219 C 395.359375 621.199219 395.058594 620 394.757812 618.800781 Z M 394.757812 618.800781 " style=" stroke:none;fill-rule:nonzero;fill:rgb(100%,91.372549%,80%);fill-opacity:1;" />
<path d="M 158.257812 632.898438 L 535.558594 632.898438 C 548.957031 632.898438 559.859375 622 559.859375 608.601562 L 559.859375 256.699219 C 493.457031 438.800781 344.359375 578.5 158.257812 632.898438 Z M 158.257812 632.898438 " style=" stroke:none;fill-rule:nonzero;fill:rgb(100%,88.627451%,74.117647%);fill-opacity:1;" />
<path d="M 559.957031 472.699219 C 556.558594 471.199219 552.957031 469.898438 549.359375 468.699219 C 552.957031 469.898438 556.558594 471.199219 559.957031 472.699219 Z M 559.957031 472.699219 " style=" stroke:none;fill-rule:nonzero;fill:rgb(100%,91.372549%,80%);fill-opacity:1;" />
<path d="M 534.058594 464.800781 C 531.65625 464.300781 529.15625 463.898438 526.558594 463.601562 C 529.15625 463.898438 531.558594 464.300781 534.058594 464.800781 Z M 534.058594 464.800781 " style=" stroke:none;fill-rule:nonzero;fill:rgb(100%,91.372549%,80%);fill-opacity:1;" />
<path d="M 545.859375 467.699219 C 543.457031 467 540.859375 466.300781 538.257812 465.699219 C 540.859375 466.199219 543.359375 466.898438 545.859375 467.699219 Z M 545.859375 467.699219 " style=" stroke:none;fill-rule:nonzero;fill:rgb(100%,91.372549%,80%);fill-opacity:1;" />
<path d="M 390.65625 599.601562 C 390.957031 602.101562 391.359375 604.601562 391.859375 607.101562 C 391.359375 604.601562 390.957031 602.101562 390.65625 599.601562 Z M 390.65625 599.601562 " style=" stroke:none;fill-rule:nonzero;fill:rgb(100%,91.372549%,80%);fill-opacity:1;" />
<path d="M 389.65625 587.101562 C 389.757812 589.800781 389.859375 592.601562 390.058594 595.199219 C 389.859375 592.601562 389.757812 589.800781 389.65625 587.101562 Z M 389.65625 587.101562 " style=" stroke:none;fill-rule:nonzero;fill:rgb(100%,91.372549%,80%);fill-opacity:1;" />
<path d="M 522.257812 463.101562 C 519.558594 462.898438 516.859375 462.699219 514.15625 462.699219 C 516.859375 462.699219 519.558594 462.898438 522.257812 463.101562 Z M 522.257812 463.101562 " style=" stroke:none;fill-rule:nonzero;fill:rgb(100%,91.372549%,80%);fill-opacity:1;" />
<path d="M 394.65625 549 C 392.558594 556.300781 391.058594 563.898438 390.257812 571.5 C 396.257812 514.398438 441.457031 469.199219 498.558594 463.199219 C 490.957031 464 483.359375 465.5 476.058594 467.601562 C 436.859375 479.199219 406.15625 509.898438 394.65625 549 Z M 394.65625 549 " style=" stroke:none;fill-rule:nonzero;fill:rgb(100%,91.372549%,80%);fill-opacity:1;" />
<path d="M 399.757812 632.898438 C 398.257812 629.5 396.957031 625.898438 395.757812 622.300781 C 396.957031 625.898438 398.257812 629.5 399.757812 632.898438 Z M 399.757812 632.898438 " style=" stroke:none;fill-rule:nonzero;fill:rgb(100%,91.372549%,80%);fill-opacity:1;" />
<path d="M 501.257812 463 C 504.257812 462.699219 507.257812 462.601562 510.257812 462.5 C 507.257812 462.601562 504.257812 462.800781 501.257812 463 Z M 501.257812 463 " style=" stroke:none;fill-rule:nonzero;fill:rgb(100%,91.372549%,80%);fill-opacity:1;" />
<path d="M 392.65625 611.199219 C 393.257812 613.800781 393.859375 616.300781 394.65625 618.800781 C 393.957031 616.300781 393.257812 613.800781 392.65625 611.199219 Z M 392.65625 611.199219 " style=" stroke:none;fill-rule:nonzero;fill:rgb(100%,91.372549%,80%);fill-opacity:1;" />
<path d="M 389.558594 583.300781 C 389.558594 580.199219 389.757812 577.199219 390.058594 574.199219 C 389.859375 577.199219 389.65625 580.199219 389.558594 583.300781 Z M 389.558594 583.300781 " style=" stroke:none;fill-rule:nonzero;fill:rgb(100%,91.372549%,80%);fill-opacity:1;" />
<path d="M 158.257812 121.699219 L 158.257812 0 L 0.0585938 146.101562 L 133.957031 146.101562 C 147.359375 146.101562 158.257812 135.199219 158.257812 121.699219 Z M 158.257812 121.699219 " style=" stroke:none;fill-rule:nonzero;fill:rgb(100%,66.27451%,57.647059%);fill-opacity:1;" />
<path d="M 316.558594 389.5 L 316.558594 0 L 243.558594 0 L 243.558594 389.5 Z M 280.058594 36.5 Z M 280.058594 85.199219 Z M 280.058594 133.898438 Z M 280.058594 182.601562 Z M 280.058594 231.300781 Z M 280.058594 279.898438 Z M 280.058594 328.601562 Z M 280.058594 328.601562 " style=" stroke:none;fill-rule:nonzero;fill:rgb(100%,89.803922%,46.666667%);fill-opacity:1;" />
<path d="M 208.15625 477.800781 C 203.15625 490.300781 209.257812 504.398438 221.757812 509.398438 C 224.65625 510.5 227.65625 511.101562 230.757812 511.101562 L 329.257812 511.101562 C 342.65625 511.101562 353.558594 500.199219 353.558594 486.699219 C 353.558594 483.601562 352.957031 480.601562 351.859375 477.699219 L 316.558594 389.5 L 243.558594 389.5 Z M 304.359375 462.5 Z M 304.359375 462.5 " style=" stroke:none;fill-rule:nonzero;fill:rgb(79.215686%,99.215686%,100%);fill-opacity:1;" />
<path d="M 559.957031 472.699219 C 556.558594 471.199219 552.957031 469.898438 549.359375 468.699219 C 548.15625 468.300781 547.058594 468 545.859375 467.699219 C 543.457031 467 540.859375 466.300781 538.257812 465.699219 C 536.859375 465.398438 535.457031 465.101562 534.058594 464.800781 C 531.65625 464.300781 529.15625 463.898438 526.558594 463.601562 C 525.15625 463.398438 523.65625 463.199219 522.257812 463.101562 C 519.558594 462.898438 516.859375 462.699219 514.15625 462.699219 C 512.859375 462.699219 511.558594 462.601562 510.257812 462.601562 C 507.257812 462.601562 504.257812 462.800781 501.257812 463.101562 C 500.359375 463.199219 499.457031 463.199219 498.558594 463.300781 C 441.457031 469.300781 396.257812 514.5 390.257812 571.601562 C 390.15625 572.5 390.15625 573.300781 390.058594 574.199219 C 389.757812 577.199219 389.65625 580.300781 389.558594 583.300781 C 389.558594 584.601562 389.65625 585.898438 389.65625 587.101562 C 389.757812 589.800781 389.859375 592.601562 390.058594 595.199219 C 390.15625 596.601562 390.359375 598.101562 390.558594 599.5 C 390.859375 602 391.257812 604.5 391.757812 607 C 392.058594 608.398438 392.257812 609.800781 392.65625 611.199219 C 393.257812 613.800781 393.859375 616.300781 394.65625 618.800781 C 395.058594 620 395.359375 621.101562 395.65625 622.300781 C 396.859375 626 398.15625 629.398438 399.65625 632.898438 C 426.457031 694.5 498.15625 722.800781 559.859375 696 C 621.558594 669.199219 649.757812 597.5 622.957031 535.800781 C 610.757812 507.601562 588.15625 485 559.957031 472.699219 Z M 511.257812 657.300781 L 511.257812 584.300781 Z M 511.257812 657.300781 " style=" stroke:none;fill-rule:nonzero;fill:rgb(49.411765%,74.117647%,31.372549%);fill-opacity:1;" />
<path d="M 526.558594 463.601562 C 525.15625 463.398438 523.65625 463.199219 522.257812 463.101562 C 523.757812 463.199219 525.15625 463.398438 526.558594 463.601562 Z M 526.558594 463.601562 " style=" stroke:none;fill-rule:nonzero;fill:rgb(100%,91.372549%,80%);fill-opacity:1;" />
<path d="M 390.257812 571.5 C 390.15625 572.398438 390.15625 573.199219 390.058594 574.101562 C 390.15625 573.300781 390.15625 572.398438 390.257812 571.5 Z M 390.257812 571.5 " style=" stroke:none;fill-rule:nonzero;fill:rgb(100%,91.372549%,80%);fill-opacity:1;" />
<path d="M 391.859375 607 C 392.15625 608.398438 392.359375 609.800781 392.757812 611.199219 C 392.359375 609.800781 392.058594 608.398438 391.859375 607 Z M 391.859375 607 " style=" stroke:none;fill-rule:nonzero;fill:rgb(100%,91.372549%,80%);fill-opacity:1;" />
<path d="M 390.15625 595.199219 C 390.257812 596.601562 390.457031 598.101562 390.65625 599.5 C 390.457031 598.101562 390.257812 596.699219 390.15625 595.199219 Z M 390.15625 595.199219 " style=" stroke:none;fill-rule:nonzero;fill:rgb(100%,91.372549%,80%);fill-opacity:1;" />
<path d="M 538.257812 465.601562 C 536.859375 465.300781 535.457031 465 534.058594 464.699219 C 535.457031 465 536.859375 465.300781 538.257812 465.601562 Z M 538.257812 465.601562 " style=" stroke:none;fill-rule:nonzero;fill:rgb(100%,91.372549%,80%);fill-opacity:1;" />
<path d="M 501.257812 463 C 500.359375 463.101562 499.457031 463.101562 498.558594 463.199219 C 499.457031 463.101562 500.359375 463.101562 501.257812 463 Z M 501.257812 463 " style=" stroke:none;fill-rule:nonzero;fill:rgb(100%,91.372549%,80%);fill-opacity:1;" />
<path d="M 549.359375 468.699219 C 548.15625 468.300781 547.058594 468 545.859375 467.699219 C 547.058594 468 548.257812 468.300781 549.359375 468.699219 Z M 549.359375 468.699219 " style=" stroke:none;fill-rule:nonzero;fill:rgb(100%,91.372549%,80%);fill-opacity:1;" />
<path d="M 510.257812 462.5 C 511.558594 462.5 512.859375 462.601562 514.15625 462.601562 C 513.15625 462.601562 512.257812 462.5 511.257812 462.5 C 510.957031 462.5 510.65625 462.5 510.257812 462.5 Z M 510.257812 462.5 " style=" stroke:none;fill-rule:nonzero;fill:rgb(100%,91.372549%,80%);fill-opacity:1;" />
<path d="M 394.757812 618.800781 C 395.15625 620 395.457031 621.101562 395.757812 622.300781 C 395.359375 621.199219 395.058594 620 394.757812 618.800781 Z M 394.757812 618.800781 " style=" stroke:none;fill-rule:nonzero;fill:rgb(100%,91.372549%,80%);fill-opacity:1;" />
<path d="M 389.65625 587.101562 C 389.65625 585.898438 389.558594 584.5 389.558594 583.300781 C 389.558594 583.601562 389.558594 583.898438 389.558594 584.300781 C 389.558594 585.199219 389.65625 586.101562 389.65625 587.101562 Z M 389.65625 587.101562 " style=" stroke:none;fill-rule:nonzero;fill:rgb(100%,91.372549%,80%);fill-opacity:1;" />
<path d="M 267.859375 36.5 L 292.15625 36.5 L 292.15625 60.800781 L 267.859375 60.800781 Z M 267.859375 36.5 " style=" stroke:none;fill-rule:nonzero;fill:rgb(100%,47.45098%,33.72549%);fill-opacity:1;" />
<path d="M 267.859375 85.199219 L 292.15625 85.199219 L 292.15625 109.5 L 267.859375 109.5 Z M 267.859375 85.199219 " style=" stroke:none;fill-rule:nonzero;fill:rgb(100%,47.45098%,33.72549%);fill-opacity:1;" />
<path d="M 267.859375 133.898438 L 292.15625 133.898438 L 292.15625 158.199219 L 267.859375 158.199219 Z M 267.859375 133.898438 " style=" stroke:none;fill-rule:nonzero;fill:rgb(100%,47.45098%,33.72549%);fill-opacity:1;" />
<path d="M 267.859375 182.601562 L 292.15625 182.601562 L 292.15625 206.898438 L 267.859375 206.898438 Z M 267.859375 182.601562 " style=" stroke:none;fill-rule:nonzero;fill:rgb(100%,47.45098%,33.72549%);fill-opacity:1;" />
<path d="M 267.859375 231.300781 L 292.15625 231.300781 L 292.15625 255.601562 L 267.859375 255.601562 Z M 267.859375 231.300781 " style=" stroke:none;fill-rule:nonzero;fill:rgb(100%,47.45098%,33.72549%);fill-opacity:1;" />
<path d="M 267.859375 279.898438 L 292.15625 279.898438 L 292.15625 304.199219 L 267.859375 304.199219 Z M 267.859375 279.898438 " style=" stroke:none;fill-rule:nonzero;fill:rgb(100%,47.45098%,33.72549%);fill-opacity:1;" />
<path d="M 267.859375 328.601562 L 292.15625 328.601562 L 292.15625 352.898438 L 267.859375 352.898438 Z M 267.859375 328.601562 " style=" stroke:none;fill-rule:nonzero;fill:rgb(100%,47.45098%,33.72549%);fill-opacity:1;" />
<path d="M 304.359375 474.699219 L 255.65625 474.699219 C 248.957031 474.699219 243.457031 469.300781 243.457031 462.5 C 243.457031 455.699219 248.859375 450.300781 255.65625 450.300781 L 304.359375 450.300781 C 311.058594 450.300781 316.558594 455.699219 316.558594 462.5 C 316.558594 469.300781 311.058594 474.699219 304.359375 474.699219 Z M 304.359375 474.699219 " style=" stroke:none;fill-rule:nonzero;fill:rgb(100%,47.45098%,33.72549%);fill-opacity:1;" />
<path d="M 511.257812 669.398438 C 504.558594 669.398438 499.058594 664 499.058594 657.199219 L 499.058594 511.199219 C 499.058594 504.5 504.457031 499 511.257812 499 C 518.058594 499 523.457031 504.398438 523.457031 511.199219 L 523.457031 657.300781 C 523.457031 664 517.957031 669.398438 511.257812 669.398438 Z M 511.257812 669.398438 " style=" stroke:none;fill-rule:nonzero;fill:rgb(94.509804%,94.901961%,94.901961%);fill-opacity:1;" />
<path d="M 584.257812 596.398438 L 438.257812 596.398438 C 431.558594 596.398438 426.058594 591 426.058594 584.199219 C 426.058594 577.5 431.457031 572 438.257812 572 L 584.359375 572 C 591.058594 572 596.558594 577.398438 596.558594 584.199219 C 596.457031 591 591.058594 596.398438 584.257812 596.398438 Z M 584.257812 596.398438 " style=" stroke:none;fill-rule:nonzero;fill:rgb(94.509804%,94.901961%,94.901961%);fill-opacity:1;" />
</g>
</svg>