<svg height="464pt" viewBox="0 0 464 464" width="464pt" xmlns="http://www.w3.org/2000/svg"><path d="m416 112h48v312h-48zm0 0" fill="#fdb62f"/><path d="m432 120h16v80h-16zm0 0" fill="#ff421d"/><path d="m384 432v-400c0-17.671875 14.328125-32 32-32h-320c-17.671875 0-32 14.328125-32 32v400c0 17.671875-14.328125 32-32 32h320c17.671875 0 32-14.328125 32-32zm0 0" fill="#e6e6e6"/><g fill="#6cbbc7"><path d="m256 40h96v16h-96zm0 0"/><path d="m176 72h176v16h-176zm0 0"/><path d="m88 104h64v16h-64zm0 0"/><path d="m120 136h240v16h-240zm0 0"/><path d="m88 168h272v16h-272zm0 0"/><path d="m88 200h272v16h-272zm0 0"/><path d="m88 232h224v16h-224zm0 0"/></g><path d="m448 48v-16c0-17.671875-14.328125-32-32-32s-32 14.328125-32 32v16zm0 0" fill="#b3b3b3"/><path d="m32 464c17.671875 0 32-14.328125 32-32v-24h-64v24c0 17.671875 14.328125 32 32 32zm0 0" fill="#b3b3b3"/><path d="m416 424 24 40 24-40zm0 0" fill="#ff421d"/><path d="m416 80h48v48h-48zm0 0" fill="#808080"/></svg>