<svg xmlns="http://www.w3.org/2000/svg" height="472pt" version="1.1" viewBox="0 -8 472 472" width="472pt">
<g id="surface1">
<path d="M 112 352 L 88 352 L 88 400 C 88.027344 408.824219 95.175781 415.972656 104 416 L 136 416 C 136 398.328125 150.328125 384 168 384 C 185.671875 384 200 398.328125 200 416 L 360 416 C 360 398.328125 374.328125 384 392 384 C 409.671875 384 424 398.328125 424 416 L 456 416 C 464.824219 415.972656 471.972656 408.824219 472 400 L 472 352 Z M 112 352 " style=" stroke:none;fill-rule:nonzero;fill:rgb(67.45098%,67.058824%,69.411765%);fill-opacity:1;" />
<path d="M 424 416 C 424 433.671875 409.671875 448 392 448 C 374.328125 448 360 433.671875 360 416 C 360 398.328125 374.328125 384 392 384 C 409.671875 384 424 398.328125 424 416 Z M 424 416 " style=" stroke:none;fill-rule:nonzero;fill:rgb(34.117647%,33.72549%,36.078431%);fill-opacity:1;" />
<path d="M 200 416 C 200 433.671875 185.671875 448 168 448 C 150.328125 448 136 433.671875 136 416 C 136 398.328125 150.328125 384 168 384 C 185.671875 384 200 398.328125 200 416 Z M 200 416 " style=" stroke:none;fill-rule:nonzero;fill:rgb(34.117647%,33.72549%,36.078431%);fill-opacity:1;" />
<path d="M 40 24 C 40 32.835938 32.835938 40 24 40 C 15.164062 40 8 32.835938 8 24 C 8 15.164062 15.164062 8 24 8 C 32.835938 8 40 15.164062 40 24 Z M 40 24 " style=" stroke:none;fill-rule:nonzero;fill:rgb(94.509804%,94.901961%,94.901961%);fill-opacity:1;" />
<path d="M 464 96 L 464 32 L 96 32 L 96 96 Z M 464 96 " style=" stroke:none;fill-rule:nonzero;fill:rgb(100%,71.372549%,33.333333%);fill-opacity:1;" />
<path d="M 448 96 L 112 96 L 112 352 L 448 352 Z M 128 328 Z M 160 328 Z M 192 328 Z M 224 328 Z M 256 328 Z M 288 328 Z M 320 328 Z M 328 160 L 232 160 C 223.164062 160 216 152.835938 216 144 C 216 135.164062 223.164062 128 232 128 L 328 128 C 336.835938 128 344 135.164062 344 144 C 344 152.835938 336.835938 160 328 160 Z M 352 328 Z M 384 328 Z M 416 328 Z M 416 328 " style=" stroke:none;fill-rule:nonzero;fill:rgb(100%,85.490196%,66.666667%);fill-opacity:1;" />
<path d="M 328 128 L 232 128 C 223.164062 128 216 135.164062 216 144 C 216 152.835938 223.164062 160 232 160 L 328 160 C 336.835938 160 344 152.835938 344 144 C 344 135.164062 336.835938 128 328 128 Z M 328 128 " style=" stroke:none;fill-rule:nonzero;fill:rgb(100%,71.372549%,33.333333%);fill-opacity:1;" />
<path d="M 392 456 C 369.910156 456 352 438.089844 352 416 C 352 393.910156 369.910156 376 392 376 C 414.089844 376 432 393.910156 432 416 C 431.972656 438.082031 414.082031 455.972656 392 456 Z M 392 392 C 378.746094 392 368 402.746094 368 416 C 368 429.253906 378.746094 440 392 440 C 405.253906 440 416 429.253906 416 416 C 416 402.746094 405.253906 392 392 392 Z M 392 392 " style=" stroke:none;fill-rule:nonzero;fill:rgb(34.117647%,33.72549%,36.078431%);fill-opacity:1;" />
<path d="M 168 456 C 145.910156 456 128 438.089844 128 416 C 128 393.910156 145.910156 376 168 376 C 190.089844 376 208 393.910156 208 416 C 207.972656 438.082031 190.082031 455.972656 168 456 Z M 168 392 C 154.746094 392 144 402.746094 144 416 C 144 429.253906 154.746094 440 168 440 C 181.253906 440 192 429.253906 192 416 C 192 402.746094 181.253906 392 168 392 Z M 168 392 " style=" stroke:none;fill-rule:nonzero;fill:rgb(34.117647%,33.72549%,36.078431%);fill-opacity:1;" />
<path d="M 24 48 C 10.746094 48 0 37.253906 0 24 C 0 10.746094 10.746094 0 24 0 C 37.253906 0 48 10.746094 48 24 C 48 37.253906 37.253906 48 24 48 Z M 24 16 C 19.582031 16 16 19.582031 16 24 C 16 28.417969 19.582031 32 24 32 C 28.417969 32 32 28.417969 32 24 C 32 19.582031 28.417969 16 24 16 Z M 24 16 " style=" stroke:none;fill-rule:nonzero;fill:rgb(34.117647%,33.72549%,36.078431%);fill-opacity:1;" />
<path d="M 88 392 L 72 392 C 58.746094 392 48 381.253906 48 368 L 48 40 C 48 35.582031 44.417969 32 40 32 L 40 16 C 53.253906 16 64 26.746094 64 40 L 64 368 C 64 372.417969 67.582031 376 72 376 L 88 376 Z M 88 392 " style=" stroke:none;fill-rule:nonzero;fill:rgb(34.117647%,33.72549%,36.078431%);fill-opacity:1;" />
<path d="M 128 320 L 144 320 L 144 336 L 128 336 Z M 128 320 " style=" stroke:none;fill-rule:nonzero;fill:rgb(94.509804%,94.901961%,94.901961%);fill-opacity:1;" />
<path d="M 160 320 L 176 320 L 176 336 L 160 336 Z M 160 320 " style=" stroke:none;fill-rule:nonzero;fill:rgb(94.509804%,94.901961%,94.901961%);fill-opacity:1;" />
<path d="M 192 320 L 208 320 L 208 336 L 192 336 Z M 192 320 " style=" stroke:none;fill-rule:nonzero;fill:rgb(94.509804%,94.901961%,94.901961%);fill-opacity:1;" />
<path d="M 224 320 L 240 320 L 240 336 L 224 336 Z M 224 320 " style=" stroke:none;fill-rule:nonzero;fill:rgb(94.509804%,94.901961%,94.901961%);fill-opacity:1;" />
<path d="M 224 320 L 240 320 L 240 336 L 224 336 Z M 224 320 " style=" stroke:none;fill-rule:nonzero;fill:rgb(94.509804%,94.901961%,94.901961%);fill-opacity:1;" />
<path d="M 256 320 L 272 320 L 272 336 L 256 336 Z M 256 320 " style=" stroke:none;fill-rule:nonzero;fill:rgb(94.509804%,94.901961%,94.901961%);fill-opacity:1;" />
<path d="M 288 320 L 304 320 L 304 336 L 288 336 Z M 288 320 " style=" stroke:none;fill-rule:nonzero;fill:rgb(94.509804%,94.901961%,94.901961%);fill-opacity:1;" />
<path d="M 320 320 L 336 320 L 336 336 L 320 336 Z M 320 320 " style=" stroke:none;fill-rule:nonzero;fill:rgb(94.509804%,94.901961%,94.901961%);fill-opacity:1;" />
<path d="M 352 320 L 368 320 L 368 336 L 352 336 Z M 352 320 " style=" stroke:none;fill-rule:nonzero;fill:rgb(94.509804%,94.901961%,94.901961%);fill-opacity:1;" />
<path d="M 384 320 L 400 320 L 400 336 L 384 336 Z M 384 320 " style=" stroke:none;fill-rule:nonzero;fill:rgb(94.509804%,94.901961%,94.901961%);fill-opacity:1;" />
<path d="M 416 320 L 432 320 L 432 336 L 416 336 Z M 416 320 " style=" stroke:none;fill-rule:nonzero;fill:rgb(94.509804%,94.901961%,94.901961%);fill-opacity:1;" />
<path d="M 416 320 L 432 320 L 432 336 L 416 336 Z M 416 320 " style=" stroke:none;fill-rule:nonzero;fill:rgb(94.509804%,94.901961%,94.901961%);fill-opacity:1;" />
</g>
</svg>