<?xml version="1.0" encoding="iso-8859-1"?>
<!-- Generator: Adobe Illustrator 19.0.0, SVG Export Plug-In . SVG Version: 6.00 Build 0)  -->
<svg version="1.1" id="Layer_1" xmlns="http://www.w3.org/2000/svg" xmlns:xlink="http://www.w3.org/1999/xlink" x="0px" y="0px"
	 viewBox="0 0 491.535 491.535" style="enable-background:new 0 0 491.535 491.535;" xml:space="preserve">
<rect x="74.972" y="194.805" style="fill:#EBF0F3;" width="416.563" height="241.818"/>
<rect x="74.972" y="265.676" style="fill:#44C4A1;" width="416.563" height="136.781"/>
<g>
	<rect x="189.153" y="414.489" style="fill:#64798A;" width="188.186" height="7.572"/>
	<rect x="153.805" y="238.853" style="fill:#64798A;" width="144.691" height="7.572"/>
	<rect x="153.805" y="216.156" style="fill:#64798A;" width="101.78" height="7.572"/>
</g>
<polygon style="fill:#E56353;" points="132.161,203.613 103.504,203.613 89.175,228.431 103.504,253.249 132.161,253.249 
	146.49,228.431 "/>
<g>
	<rect x="348.467" y="219.694" style="fill:#D5D6DB;" width="17.362" height="26.726"/>
	<rect x="368.118" y="219.694" style="fill:#D5D6DB;" width="17.362" height="26.726"/>
	<rect x="387.789" y="219.694" style="fill:#D5D6DB;" width="17.362" height="26.726"/>
	<rect x="407.398" y="219.694" style="fill:#D5D6DB;" width="17.362" height="26.726"/>
	<rect x="427.059" y="219.694" style="fill:#D5D6DB;" width="17.362" height="26.726"/>
	<rect x="446.72" y="219.694" style="fill:#D5D6DB;" width="17.362" height="26.726"/>
</g>
<g>
	<rect x="95.795" y="295.608" style="fill:#EBF0F3;" width="234.194" height="7.572"/>
	<rect x="95.795" y="330.485" style="fill:#EBF0F3;" width="234.194" height="7.572"/>
	<rect x="361.37" y="364.943" style="fill:#EBF0F3;" width="109.332" height="7.572"/>
	<rect x="361.37" y="295.608" style="fill:#EBF0F3;" width="109.332" height="35.64"/>
</g>
<rect x="74.972" y="436.572" style="fill:#E1E6E9;" width="416.563" height="19.707"/>
<rect y="436.628" style="fill:#D5D6DB;" width="74.972" height="19.707"/>
<rect y="194.754" style="fill:#27A2DB;" width="74.972" height="241.818"/>
<path style="fill:#2D93BA;" d="M74.97,194.79C194.367,189.952,277.184,45.665,396.449,35.2c-0.004,80.601-0.004,161.202,0,241.803
	C277.184,287.466,194.367,431.755,74.97,436.593C74.965,355.992,74.965,275.391,74.97,194.79z"/>
<g>
</g>
<g>
</g>
<g>
</g>
<g>
</g>
<g>
</g>
<g>
</g>
<g>
</g>
<g>
</g>
<g>
</g>
<g>
</g>
<g>
</g>
<g>
</g>
<g>
</g>
<g>
</g>
<g>
</g>
</svg>
