<svg height="512pt" viewBox="0 0 512 512" width="512pt" xmlns="http://www.w3.org/2000/svg"><path d="m466 512c-8.285156 0-15-6.714844-15-15v-346h-60v346c0 8.285156-6.714844 15-15 15s-15-6.714844-15-15v-361c0-8.285156 6.714844-15 15-15h90c8.285156 0 15 6.714844 15 15v361c0 8.285156-6.714844 15-15 15zm0 0" fill="#90e36a"/><path d="m316 512c-8.285156 0-15-6.714844-15-15v-226h-60v226c0 8.285156-6.714844 15-15 15s-15-6.714844-15-15v-241c0-8.285156 6.714844-15 15-15h90c8.285156 0 15 6.714844 15 15v241c0 8.285156-6.714844 15-15 15zm0 0" fill="#fdbf00"/><path d="m166 512c-8.285156 0-15-6.714844-15-15v-106h-60v106c0 8.285156-6.714844 15-15 15s-15-6.714844-15-15v-121c0-8.285156 6.714844-15 15-15h90c8.285156 0 15 6.714844 15 15v121c0 8.285156-6.714844 15-15 15zm0 0" fill="#ff9f00"/><path d="m166 90h-45v-30h45c8.285156 0 15-6.714844 15-15s-6.714844-15-15-15h-15v-15c0-8.285156-6.714844-15-15-15s-15 6.714844-15 15v15h-15c-8.285156 0-15 6.714844-15 15v60c0 8.285156 6.714844 15 15 15h45v30h-45c-8.285156 0-15 6.714844-15 15s6.714844 15 15 15h15v15c0 8.285156 6.714844 15 15 15s15-6.714844 15-15v-15h15c8.285156 0 15-6.714844 15-15v-60c0-8.285156-6.714844-15-15-15zm0 0" fill="#fdbf00"/><path d="m497 512h-482c-8.285156 0-15-6.714844-15-15v-482c0-8.285156 6.714844-15 15-15s15 6.714844 15 15v467h467c8.285156 0 15 6.714844 15 15s-6.714844 15-15 15zm0 0" fill="#68544f"/></svg>