<?xml version="1.0" encoding="utf-8"?>
<!-- Generator: Adobe Illustrator 23.0.0, SVG Export Plug-In . SVG Version: 6.00 Build 0)  -->
<svg version="1.1" id="Capa_1" xmlns="http://www.w3.org/2000/svg" xmlns:xlink="http://www.w3.org/1999/xlink" x="0px" y="0px"
	 viewBox="0 0 512 512" style="enable-background:new 0 0 512 512;" xml:space="preserve">
<style type="text/css">
	.st0{fill:#F4F6F7;}
	.st1{fill:#EAECEE;}
	.st2{fill:#D5D9DE;}
	.st3{fill:#FDE180;}
	.st4{fill:#6B7B8B;}
	.st5{fill:#76DCEB;}
	.st6{fill:#FCDA60;}
	.st7{fill:#49D0E5;}
	.st8{fill:#FFFFFF;}
	.st9{font-family:'ChalkboardSE-Regular';}
	.st10{font-size:100px;}
</style>
<path class="st0" d="M340,512H36c-4.4,0-8-3.6-8-8V8c0-4.4,3.6-8,8-8h384c4.4,0,8,3.6,8,8v416L340,512z"/>
<path class="st1" d="M60,504V8c0-4.4,3.6-8,8-8H36c-4.4,0-8,3.6-8,8v496c0,4.4,3.6,8,8,8h32C63.6,512,60,508.4,60,504z"/>
<path class="st2" d="M428,424h-80c-4.4,0-8,3.6-8,8v80L428,424z"/>
<path class="st3" d="M228,40c-61.8,0-112,50.2-112,112s50.2,112,112,112s112-50.2,112-112S289.8,40,228,40z"/>
<g>
	<path class="st4" d="M241.8,386.3c-2,0-4.1-0.8-5.7-2.3c-3.1-3.1-3.1-8.2,0-11.3l17-17c3.1-3.1,8.2-3.1,11.3,0s3.1,8.2,0,11.3
		l-17,17C245.9,385.5,243.8,386.3,241.8,386.3z"/>
	<path class="st4" d="M405.8,290.1c-7,0-10.6-8.7-5.7-13.7l50.9-50.9l-11.3-11.3c-3.1-3.1-3.1-8.2,0-11.3c3.1-3.1,8.2-3.1,11.3,0
		l17,17c3.1,3.1,3.1,8.2,0,11.3l-56.6,56.6C409.9,289.3,407.9,290.1,405.8,290.1z"/>
</g>
<path class="st3" d="M479.3,163.3l-22.6-22.6c-6.2-6.2-16.5-6.2-22.6,0L264.4,310.4c-1,1-1.8,2.3-2.1,3.7L251,359.4
	c-0.7,2.7,0.1,5.6,2.1,7.6c1.5,1.5,3.6,2.3,5.7,2.3c0.6,0,1.3-0.1,1.9-0.2l45.3-11.3c1.4-0.3,2.7-1.1,3.7-2.1l169.7-169.7
	C485.5,179.8,485.5,169.5,479.3,163.3z"/>
<path class="st5" d="M264.4,310.4c-1,1-1.8,2.3-2.1,3.7l43.6,43.6c1.4-0.3,2.7-1.1,3.7-2.1l147-147l-45.3-45.3L264.4,310.4z"/>
<path class="st3" d="M456.7,140.7c-6.2-6.2-16.5-6.2-22.6,0L264.4,310.4c-1,1-1.8,2.3-2.1,3.7L251,359.4c-0.7,2.7,0.1,5.6,2.1,7.6
	c1.5,1.5,3.6,2.3,5.7,2.3c0.6,0,1.3-0.1,1.9-0.2l7.5-1.9l207.5-207.5L456.7,140.7z"/>
<path class="st6" d="M479.3,163.3l-3.6-3.6L341.6,293.7l16.4,13.5l121.3-121.3C485.5,179.8,485.5,169.5,479.3,163.3z"/>
<path class="st5" d="M411.4,163.4l-147,147c-1,1-1.8,2.3-2.1,3.7l29.5,29.5l149.9-149.9L411.4,163.4z"/>
<path class="st7" d="M291.8,343.6l14.2,14.2c1.4-0.3,2.7-1.1,3.7-2.1l147-147l-15-15L291.8,343.6z"/>
<g>
	<path class="st2" d="M212,384h-56c-4.4,0-8-3.6-8-8s3.6-8,8-8h56c4.4,0,8,3.6,8,8S216.4,384,212,384z"/>
	<path class="st2" d="M300,424H156c-4.4,0-8-3.6-8-8s3.6-8,8-8h144c4.4,0,8,3.6,8,8S304.4,424,300,424z"/>
	<path class="st2" d="M188,464h-32c-4.4,0-8-3.6-8-8s3.6-8,8-8h32c4.4,0,8,3.6,8,8S192.4,464,188,464z"/>
	<path class="st2" d="M300,464h-80c-4.4,0-8-3.6-8-8s3.6-8,8-8h80c4.4,0,8,3.6,8,8S304.4,464,300,464z"/>
</g>
<text transform="matrix(1 0 0 1 145 190.7008)" class="st8 st9 st10">123</text>
</svg>
