<svg height="479pt" viewBox="0 -56 479.6721 479" width="479pt" xmlns="http://www.w3.org/2000/svg" xmlns:xlink="http://www.w3.org/1999/xlink"><linearGradient id="a"><stop offset="0" stop-color="#006df0"/><stop offset="1" stop-color="#00e7f0"/></linearGradient><linearGradient id="b" gradientUnits="userSpaceOnUse" x1=".064441" x2="483.552441" xlink:href="#a" y1="209.973129" y2="209.973129"/><linearGradient id="c" gradientUnits="userSpaceOnUse" x1="-.375559" x2="483.112441" xlink:href="#a" y1="183.997129" y2="183.997129"/><path d="m157.808594 191.996094h41.816406v128h80v-128h41.816406l-81.816406-92zm105.816406-16v128h-48v-128h-22.183594l46.183594-51.957032 46.183594 51.957032zm0 0" fill="url(#b)"/><path d="m374.625 144.214844c.667969-5.382813 1.003906-10.796875 1-16.21875-.179688-67.484375-52.71875-123.238282-120.074219-127.414063-67.355469-4.179687-126.386719 44.652344-134.902343 111.597657-67.386719 3.878906-120.179688 59.414062-120.64453175 126.910156-.46484425 67.492187 51.55859375 123.75 118.88281275 128.554687 2.890625.265625 5.769531.351563 8.738281.351563h240c60.511719.027344 110.101562-48.015625 111.992188-108.496094 1.890624-60.484375-44.597657-111.53125-104.992188-115.285156zm-7 207.78125h-240c-2.472656 0-4.863281-.0625-7.480469-.304688-60.003906-4.421875-105.792969-55.464844-103.695312-115.597656 2.09375-60.132812 51.328125-107.863281 111.496093-108.097656 4.222657.011718 7.726563-3.265625 8-7.480469 2.765626-41.746094 28.570313-78.46875 66.910157-95.222656 38.339843-16.75 82.820312-10.738281 115.332031 15.59375s47.640625 68.589843 39.222656 109.574219c-.523437 2.492187.171875 5.085937 1.875 6.980468 1.703125 1.898438 4.203125 2.871094 6.738282 2.621094.519531-.050781 1.082031 0 1.601562 0 53.019531 0 96 42.980469 96 96s-42.980469 96-96 96zm0 0" fill="url(#c)"/></svg>