<?xml version="1.0" encoding="iso-8859-1"?>
<!-- Generator: Adobe Illustrator 19.0.0, SVG Export Plug-In . SVG Version: 6.00 Build 0)  -->
<svg version="1.1" id="Capa_1" xmlns="http://www.w3.org/2000/svg" xmlns:xlink="http://www.w3.org/1999/xlink" x="0px" y="0px"
	 viewBox="0 0 512 512" style="enable-background:new 0 0 512 512;" xml:space="preserve">
<g>
	<path style="fill:#95A1AC;" d="M136.003,224c-2.206,0-4.401-0.907-5.982-2.686c-2.935-3.302-2.638-8.358,0.665-11.294l72-64
		c3.302-2.937,8.358-2.638,11.294,0.665c2.935,3.302,2.638,8.358-0.665,11.294l-72,64C139.791,223.334,137.893,224,136.003,224z"/>
	<path style="fill:#95A1AC;" d="M367.996,184c-1.807,0-3.622-0.607-5.117-1.854l-48-40c-3.395-2.828-3.854-7.873-1.024-11.267
		c2.828-3.396,7.875-3.854,11.267-1.024l48,40c3.395,2.828,3.854,7.873,1.024,11.267C372.563,183.02,370.288,184,367.996,184z"/>
</g>
<path style="fill:#FDE180;" d="M88,192c-48.523,0-88,39.477-88,88s39.477,88,88,88s88-39.477,88-88S136.523,192,88,192z"/>
<path style="fill:#FCDA60;" d="M88,216c-35.29,0-64,28.71-64,64s28.71,64,64,64s64-28.71,64-64S123.29,216,88,216z"/>
<path style="fill:#FFFFFF;" d="M108.8,272.4c4.418,0,8-3.582,8-8v-5.2c0-12.066-9.103-22.039-20.8-23.429V228c0-4.418-3.582-8-8-8
	s-8,3.582-8,8v8.162c-11.865,2.496-20.8,13.042-20.8,25.638c0,14.447,11.753,26.2,26.2,26.2h5.2c5.624,0,10.2,4.576,10.2,10.2
	s-4.576,10.2-10.2,10.2h-7.8c-4.19,0-7.6-3.409-7.6-7.601c0-4.418-3.582-8-8-8s-8,3.582-8,8c0,12.066,9.103,22.039,20.8,23.429V332
	c0,4.418,3.582,8,8,8s8-3.582,8-8v-8.162c11.865-2.496,20.8-13.042,20.8-25.638c0-14.447-11.753-26.2-26.2-26.2h-5.2
	c-5.624,0-10.2-4.576-10.2-10.2s4.576-10.2,10.2-10.2h7.8c4.19,0,7.6,3.409,7.6,7.601v5.2C100.8,268.818,104.381,272.4,108.8,272.4z
	"/>
<path style="fill:#FDE180;" d="M256,0c-48.523,0-88,39.477-88,88s39.477,88,88,88s88-39.477,88-88S304.523,0,256,0z"/>
<path style="fill:#FCDA60;" d="M256,24c-35.29,0-64,28.71-64,64s28.71,64,64,64s64-28.71,64-64S291.29,24,256,24z"/>
<path style="fill:#FFFFFF;" d="M276.8,80.4c4.418,0,8-3.582,8-8v-5.2c0-12.066-9.103-22.039-20.8-23.429V36c0-4.418-3.582-8-8-8
	s-8,3.582-8,8v8.162c-11.865,2.496-20.8,13.042-20.8,25.638c0,14.447,11.753,26.2,26.2,26.2h5.2c5.624,0,10.2,4.576,10.2,10.2
	s-4.576,10.2-10.2,10.2h-7.8c-4.19,0-7.6-3.409-7.6-7.601c0-4.418-3.582-8-8-8s-8,3.582-8,8c0,12.066,9.103,22.039,20.8,23.429V140
	c0,4.418,3.582,8,8,8s8-3.582,8-8v-8.162c11.865-2.496,20.8-13.042,20.8-25.638c0-14.447-11.753-26.2-26.2-26.2h-5.2
	c-5.624,0-10.2-4.576-10.2-10.2s4.576-10.2,10.2-10.2h7.8c4.19,0,7.6,3.409,7.6,7.601v5.2C268.8,76.818,272.382,80.4,276.8,80.4z"/>
<path style="fill:#FDE180;" d="M424,144c-48.523,0-88,39.477-88,88s39.477,88,88,88s88-39.477,88-88S472.523,144,424,144z"/>
<path style="fill:#FCDA60;" d="M424,168c-35.29,0-64,28.71-64,64s28.71,64,64,64s64-28.71,64-64S459.29,168,424,168z"/>
<path style="fill:#FFFFFF;" d="M444.8,224.4c4.418,0,8-3.582,8-8v-5.2c0-12.066-9.103-22.039-20.8-23.429V180c0-4.418-3.582-8-8-8
	s-8,3.582-8,8v8.162c-11.865,2.496-20.8,13.042-20.8,25.638c0,14.447,11.753,26.2,26.2,26.2h5.199c5.624,0,10.2,4.576,10.2,10.2
	s-4.576,10.2-10.2,10.2h-7.8c-4.19,0-7.6-3.409-7.6-7.601c0-4.418-3.582-8-8-8s-8,3.582-8,8c0,12.066,9.103,22.039,20.8,23.429V284
	c0,4.418,3.582,8,8,8s8-3.582,8-8v-8.162c11.865-2.496,20.8-13.042,20.8-25.638c0-14.447-11.753-26.2-26.2-26.2H421.4
	c-5.624,0-10.2-4.576-10.2-10.2s4.576-10.2,10.2-10.2h7.8c4.19,0,7.6,3.409,7.6,7.601v5.2C436.8,220.818,440.382,224.4,444.8,224.4z
	"/>
<path style="fill:#76DCEB;" d="M160,392H96c-4.418,0-8,3.582-8,8v112h80V400C168,395.582,164.418,392,160,392z"/>
<path style="fill:#49D0E5;" d="M120,392H96c-4.418,0-8,3.582-8,8v112h24V400C112,395.582,115.582,392,120,392z"/>
<path style="fill:#76DCEB;" d="M472,392h-64c-4.418,0-8,3.582-8,8v112h80V400C480,395.582,476.418,392,472,392z"/>
<path style="fill:#49D0E5;" d="M432,392h-24c-4.418,0-8,3.582-8,8v112h24V400C424,395.582,427.582,392,432,392z"/>
<path style="fill:#76DCEB;" d="M264,296h-64c-4.418,0-8,3.582-8,8v208h80V304C272,299.582,268.418,296,264,296z"/>
<path style="fill:#49D0E5;" d="M224,296h-24c-4.418,0-8,3.582-8,8v208h24V304C216,299.582,219.582,296,224,296z"/>
<path style="fill:#76DCEB;" d="M368,344h-64c-4.418,0-8,3.582-8,8v160h80V352C376,347.582,372.418,344,368,344z"/>
<path style="fill:#49D0E5;" d="M328,344h-24c-4.418,0-8,3.582-8,8v160h24V352C320,347.582,323.582,344,328,344z"/>
<g>
</g>
<g>
</g>
<g>
</g>
<g>
</g>
<g>
</g>
<g>
</g>
<g>
</g>
<g>
</g>
<g>
</g>
<g>
</g>
<g>
</g>
<g>
</g>
<g>
</g>
<g>
</g>
<g>
</g>
</svg>
