<?xml version="1.0" encoding="utf-8"?>
<!-- Generator: Adobe Illustrator 23.0.0, SVG Export Plug-In . SVG Version: 6.00 Build 0)  -->
<svg version="1.1" id="Capa_1" xmlns="http://www.w3.org/2000/svg" xmlns:xlink="http://www.w3.org/1999/xlink" x="0px" y="0px"
	 viewBox="0 0 472 472" style="enable-background:new 0 0 472 472;" xml:space="preserve">
<style type="text/css">
	.st0{fill:#D1D3D4;}
	.st1{fill:#D6D8D9;}
	.st2{fill:#3484C3;}
	.st3{fill:#1B75BC;}
	.st4{fill:#F1F2F2;}
	.st5{fill:#00AEEF;}
	.st6{fill:#1CB7F1;}
	.st7{fill:#808285;}
	.st8{fill:#2B3990;}
	.st9{fill:#434F9C;}
	.st10{fill:#FFFFFF;}
	.st11{font-family:'MyriadPro-Regular';}
	.st12{font-size:200px;}
</style>
<path class="st0" d="M80,56H32v208h72V56H80z"/>
<path class="st1" d="M104,56v208h32v-80h40V56H104z"/>
<path class="st2" d="M232,184h96v288h-96V184z"/>
<path class="st3" d="M136,184h96v288h-96V184z"/>
<g>
	<path class="st4" d="M176,224h32v32h-32V224z"/>
	<path class="st4" d="M256,224h32v32h-32V224z"/>
	<path class="st4" d="M176,288h32v32h-32V288z"/>
	<path class="st4" d="M256,288h32v32h-32V288z"/>
	<path class="st4" d="M176,352h32v32h-32V352z"/>
	<path class="st4" d="M256,352h32v32h-32V352z"/>
	<path class="st4" d="M88,88H72c-4.4,0-8,3.6-8,8s3.6,8,8,8h16c4.4,0,8-3.6,8-8S92.4,88,88,88z"/>
	<path class="st4" d="M120,104h16c4.4,0,8-3.6,8-8s-3.6-8-8-8h-16c-4.4,0-8,3.6-8,8S115.6,104,120,104z"/>
	<path class="st4" d="M88,120H72c-4.4,0-8,3.6-8,8s3.6,8,8,8h16c4.4,0,8-3.6,8-8S92.4,120,88,120z"/>
	<path class="st4" d="M120,136h16c4.4,0,8-3.6,8-8s-3.6-8-8-8h-16c-4.4,0-8,3.6-8,8S115.6,136,120,136z"/>
	<path class="st4" d="M88,152H72c-4.4,0-8,3.6-8,8s3.6,8,8,8h16c4.4,0,8-3.6,8-8S92.4,152,88,152z"/>
	<path class="st4" d="M144,160c0-4.4-3.6-8-8-8h-16c-4.4,0-8,3.6-8,8s3.6,8,8,8h16C140.4,168,144,164.4,144,160z"/>
</g>
<path class="st5" d="M288,8v176h40v288h48V32L288,8z"/>
<path class="st6" d="M464,56l-88-24v440h88V56z"/>
<path class="st7" d="M80,0c-4.4,0-8,3.6-8,8v48h16V8C88,3.6,84.4,0,80,0z"/>
<path class="st8" d="M32,264H8v208h64V264H32z"/>
<path class="st9" d="M72,264h64v208H72V264z"/>
<text transform="matrix(1 0 0 1 358.2498 224)" class="st10 st11 st12">$</text>
</svg>
